<svg width="66" height="66" viewBox="0 0 66 66" fill="none" xmlns="http://www.w3.org/2000/svg">
<circle cx="33" cy="33" r="33" fill="#0B2641"/>
<path d="M50.6366 48.2552C51.1184 49.469 51.6558 50.3701 52.2488 50.9586C52.8418 51.5287 53.4255 51.8322 54 51.869V53C51.2574 52.8897 47.8014 52.8345 43.6319 52.8345C39.2956 52.8345 36.1082 52.8897 34.0698 53V51.869C35.4967 51.8138 36.5159 51.6391 37.1275 51.3448C37.7575 51.0506 38.0725 50.5356 38.0725 49.8C38.0725 49.2299 37.8409 48.3379 37.3776 47.1241L33.9864 37.8552H22.5064L21.5336 40.3931C20.3105 43.5563 19.699 46.0115 19.699 47.7586C19.699 49.3034 20.1252 50.3609 20.9776 50.931C21.8486 51.5011 23.1365 51.8138 24.8414 51.869V53C22.0061 52.8897 19.5229 52.8345 17.3919 52.8345C15.5944 52.8345 14.1304 52.8897 13 53V51.869C13.9266 51.7218 14.8068 51.1425 15.6407 50.131C16.4931 49.1195 17.3548 47.492 18.2258 45.2483L30.8732 13C31.6886 13.0736 32.6893 13.1103 33.8753 13.1103C35.0612 13.1103 36.0527 13.0736 36.8495 13L50.6366 48.2552ZM28.4271 22.6L22.9512 36.7241H33.5973L28.4271 22.6Z" fill="#727A8B"/>
</svg>
