<svg width="726" height="709" viewBox="0 0 726 709" fill="none" xmlns="http://www.w3.org/2000/svg">
<circle cx="363" cy="346" r="292" stroke="#5141A4" stroke-width="2" stroke-dasharray="8 7"/>
<g filter="url(#filter0_f_910_572)">
<circle cx="367" cy="383" r="74" fill="#C4E5F8"/>
</g>
<g opacity="0.4" filter="url(#filter1_f_910_572)">
<circle cx="346" cy="316" r="74" fill="#DBF8C4"/>
</g>
<g opacity="0.2" filter="url(#filter2_f_910_572)">
<circle cx="397" cy="333" r="74" fill="#F8E0C4"/>
</g>
<g filter="url(#filter3_b_910_572)">
<circle cx="363" cy="345" r="123" fill="#7467B6" fill-opacity="0.2"/>
</g>
<path d="M302.68 338.1H299.48L294.26 353H296.94L298.04 349.72H304.12L305.24 353H307.92L302.68 338.1ZM298.78 347.5L301.08 340.74L303.38 347.5H298.78ZM313.87 353.24C316.17 353.24 318.05 351.92 318.69 350.16L316.61 349.1C316.19 350.28 315.19 351.02 313.87 351.02C312.11 351.02 310.83 349.58 310.83 347.62C310.83 345.62 312.11 344.2 313.87 344.2C315.17 344.2 316.19 344.96 316.61 346.12L318.69 345.08C318.03 343.26 316.15 341.98 313.87 341.98C310.69 341.98 308.33 344.38 308.33 347.6C308.33 350.82 310.71 353.24 313.87 353.24ZM325.399 342.1C324.079 342.1 323.039 342.54 322.479 343.72V342.22H320.219V353H322.619V346.9C322.619 345.22 323.619 344.26 325.099 344.26H326.399V342.1H325.399ZM337.834 347.22C337.834 344.36 335.674 341.98 332.634 341.98C329.594 341.98 327.294 344.36 327.294 347.6C327.294 350.76 329.554 353.24 332.814 353.24C335.014 353.24 336.774 352.12 337.434 350.58L335.454 349.62C334.974 350.5 334.114 351.12 332.834 351.12C331.174 351.12 329.914 350.02 329.794 348.3H337.714C337.794 347.98 337.834 347.6 337.834 347.22ZM329.834 346.44C330.114 344.86 331.234 343.98 332.634 343.98C334.014 343.98 335.174 345 335.254 346.44H329.834ZM343.439 353.24C345.899 353.24 347.599 351.92 347.599 349.98C347.599 348.48 346.599 347.4 344.739 346.88L342.819 346.34C342.199 346.16 341.519 345.82 341.519 345.14C341.519 344.46 342.139 344 343.139 344C344.359 344 345.319 344.62 345.719 345.64L347.599 344.76C346.939 343.04 345.259 341.98 343.139 341.98C340.759 341.98 339.139 343.3 339.139 345.24C339.139 346.7 340.079 347.8 341.959 348.32L343.799 348.8C344.459 348.98 345.219 349.3 345.219 350.04C345.219 350.78 344.519 351.28 343.439 351.28C342.159 351.28 341.099 350.6 340.539 349.32L338.679 350.22C339.359 352.1 341.199 353.24 343.439 353.24ZM357.818 353.24C360.958 353.24 363.478 350.86 363.478 347.6C363.478 344.34 360.978 341.98 357.818 341.98C354.638 341.98 352.158 344.34 352.158 347.6C352.158 350.86 354.658 353.24 357.818 353.24ZM357.818 351.02C355.978 351.02 354.658 349.6 354.658 347.62C354.658 345.64 355.978 344.2 357.818 344.2C359.638 344.2 360.978 345.64 360.978 347.62C360.978 349.6 359.638 351.02 357.818 351.02ZM366.12 353H368.52V344.38H370.96V342.22H368.52V341.6C368.52 340.5 369.22 339.92 370.36 339.92C370.54 339.92 370.86 339.94 371.1 339.98V337.9C370.84 337.84 370.38 337.8 370.06 337.8C367.7 337.8 366.12 339.18 366.12 341.6V342.22H364.18V344.38H366.12V353ZM376.258 353H378.778V347.44H381.998C385.038 347.44 387.198 345.72 387.198 342.78C387.198 339.82 385.058 338.1 381.998 338.1H376.258V353ZM378.778 345.24V340.32H381.998C383.578 340.32 384.638 341.3 384.638 342.78C384.638 344.26 383.578 345.24 381.998 345.24H378.778ZM398.577 347.22C398.577 344.36 396.417 341.98 393.377 341.98C390.337 341.98 388.037 344.36 388.037 347.6C388.037 350.76 390.297 353.24 393.557 353.24C395.757 353.24 397.517 352.12 398.177 350.58L396.197 349.62C395.717 350.5 394.857 351.12 393.577 351.12C391.917 351.12 390.657 350.02 390.537 348.3H398.457C398.537 347.98 398.577 347.6 398.577 347.22ZM390.577 346.44C390.857 344.86 391.977 343.98 393.377 343.98C394.757 343.98 395.917 345 395.997 346.44H390.577ZM404.461 341.98C402.321 341.98 400.521 343.12 399.901 344.76L401.981 345.8C402.381 344.78 403.301 344.14 404.461 344.14C405.661 344.14 406.481 344.8 406.481 345.8V346.14L402.941 346.9C400.761 347.38 399.501 348.44 399.501 350.04C399.501 351.88 401.021 353.24 403.421 353.24C404.721 353.24 405.821 352.76 406.621 351.8V353H408.881V345.8C408.881 343.56 407.081 341.98 404.461 341.98ZM403.701 351.34C402.661 351.34 402.001 350.84 402.001 350.02C402.001 349.36 402.521 348.84 403.421 348.64L406.481 347.96V348.66C406.481 350.18 405.301 351.34 403.701 351.34ZM415.745 353.24C418.045 353.24 419.925 351.92 420.565 350.16L418.485 349.1C418.065 350.28 417.065 351.02 415.745 351.02C413.985 351.02 412.705 349.58 412.705 347.62C412.705 345.62 413.985 344.2 415.745 344.2C417.045 344.2 418.065 344.96 418.485 346.12L420.565 345.08C419.905 343.26 418.025 341.98 415.745 341.98C412.565 341.98 410.205 344.38 410.205 347.6C410.205 350.82 412.585 353.24 415.745 353.24ZM432.034 347.22C432.034 344.36 429.874 341.98 426.834 341.98C423.794 341.98 421.494 344.36 421.494 347.6C421.494 350.76 423.754 353.24 427.014 353.24C429.214 353.24 430.974 352.12 431.634 350.58L429.654 349.62C429.174 350.5 428.314 351.12 427.034 351.12C425.374 351.12 424.114 350.02 423.994 348.3H431.914C431.994 347.98 432.034 347.6 432.034 347.22ZM424.034 346.44C424.314 344.86 425.434 343.98 426.834 343.98C428.214 343.98 429.374 345 429.454 346.44H424.034Z" fill="black"/>
<circle cx="363" cy="70" r="70" fill="#EEECF6"/>
<path d="M318.381 77H320.257V72.842H324.863V77H326.739V66.57H324.863V71.204H320.257V66.57H318.381V77ZM333.682 69.314V73.864C333.682 74.872 332.996 75.53 332.044 75.53C331.078 75.53 330.406 74.872 330.406 73.864V69.314H328.614V74.06C328.614 75.852 329.846 77.168 331.582 77.168C332.534 77.168 333.36 76.79 333.78 76.09V77H335.474V69.314H333.682ZM345.81 69.146C344.802 69.146 343.906 69.608 343.43 70.406C342.94 69.608 342.114 69.146 341.092 69.146C340.168 69.146 339.426 69.51 339.034 70.252V69.314H337.34V77H339.132V72.45C339.132 71.414 339.72 70.798 340.588 70.798C341.47 70.798 342.058 71.414 342.058 72.45V77H343.85V72.45C343.85 71.414 344.424 70.798 345.306 70.798C346.188 70.798 346.762 71.414 346.762 72.45V77H348.554V72.03C348.554 70.294 347.406 69.146 345.81 69.146ZM353.494 69.146C351.926 69.146 350.61 69.958 350.162 71.162L351.716 71.918C351.982 71.204 352.654 70.742 353.48 70.742C354.32 70.742 354.922 71.19 354.922 71.876V72.128L352.57 72.534C350.778 72.828 349.868 73.766 349.868 74.9C349.868 76.188 350.988 77.168 352.71 77.168C353.648 77.168 354.446 76.832 355.02 76.16V77H356.714V71.876C356.714 70.252 355.37 69.146 353.494 69.146ZM352.934 75.782C352.22 75.782 351.73 75.46 351.73 74.83C351.73 74.424 352.01 73.99 352.822 73.836L354.922 73.458V73.934C354.922 74.97 354.068 75.782 352.934 75.782ZM362.233 69.146C361.253 69.146 360.441 69.524 360.007 70.21V69.314H358.313V77H360.105V72.45C360.105 71.442 360.777 70.798 361.743 70.798C362.723 70.798 363.381 71.456 363.381 72.45V77H365.173V72.03C365.173 70.336 363.955 69.146 362.233 69.146ZM366.857 68.306H368.649V66.444H366.857V68.306ZM366.857 77H368.649V69.314H366.857V77ZM374.107 77.084C374.401 77.084 374.737 77.056 375.017 77.014V75.586C374.835 75.614 374.611 75.628 374.499 75.628C373.337 75.628 373.099 75.012 373.099 74.396V70.938H374.975V69.342H373.099V67.06H371.307V68.18C371.307 68.922 370.873 69.342 370.117 69.342H369.879V70.938H371.307V74.396C371.307 76.09 372.329 77.084 374.107 77.084ZM379.675 69.146C378.107 69.146 376.791 69.958 376.343 71.162L377.897 71.918C378.163 71.204 378.835 70.742 379.661 70.742C380.501 70.742 381.103 71.19 381.103 71.876V72.128L378.751 72.534C376.959 72.828 376.049 73.766 376.049 74.9C376.049 76.188 377.169 77.168 378.891 77.168C379.829 77.168 380.627 76.832 381.201 76.16V77H382.895V71.876C382.895 70.252 381.551 69.146 379.675 69.146ZM379.115 75.782C378.401 75.782 377.911 75.46 377.911 74.83C377.911 74.424 378.191 73.99 379.003 73.836L381.103 73.458V73.934C381.103 74.97 380.249 75.782 379.115 75.782ZM388.373 69.23C387.379 69.23 386.595 69.552 386.175 70.434V69.314H384.495V77H386.287V72.702C386.287 71.512 387.043 70.826 388.163 70.826H389.129V69.23H388.373ZM390.4 68.306H392.192V66.444H390.4V68.306ZM390.4 77H392.192V69.314H390.4V77ZM397.23 69.146C395.662 69.146 394.346 69.958 393.898 71.162L395.452 71.918C395.718 71.204 396.39 70.742 397.216 70.742C398.056 70.742 398.658 71.19 398.658 71.876V72.128L396.306 72.534C394.514 72.828 393.604 73.766 393.604 74.9C393.604 76.188 394.724 77.168 396.446 77.168C397.384 77.168 398.182 76.832 398.756 76.16V77H400.45V71.876C400.45 70.252 399.106 69.146 397.23 69.146ZM396.67 75.782C395.956 75.782 395.466 75.46 395.466 74.83C395.466 74.424 395.746 73.99 396.558 73.836L398.658 73.458V73.934C398.658 74.97 397.804 75.782 396.67 75.782ZM405.969 69.146C404.989 69.146 404.177 69.524 403.743 70.21V69.314H402.049V77H403.841V72.45C403.841 71.442 404.513 70.798 405.479 70.798C406.459 70.798 407.117 71.456 407.117 72.45V77H408.909V72.03C408.909 70.336 407.691 69.146 405.969 69.146ZM346.95 83.57H344.542L340.86 94H342.848L343.618 91.746H347.888L348.658 94H350.646L346.95 83.57ZM344.164 90.108L345.76 85.474L347.342 90.108H344.164ZM355.233 94.168C356.885 94.168 358.271 93.216 358.719 91.942L357.179 91.158C356.885 91.984 356.171 92.53 355.233 92.53C353.959 92.53 353.063 91.522 353.063 90.164C353.063 88.764 353.987 87.798 355.219 87.798C356.129 87.798 356.885 88.33 357.179 89.156L358.719 88.4C358.243 87.07 356.871 86.146 355.233 86.146C352.923 86.146 351.201 87.868 351.201 90.15C351.201 92.432 352.937 94.168 355.233 94.168ZM363.655 94.084C363.949 94.084 364.285 94.056 364.565 94.014V92.586C364.383 92.614 364.159 92.628 364.047 92.628C362.885 92.628 362.647 92.012 362.647 91.396V87.938H364.523V86.342H362.647V84.06H360.855V85.18C360.855 85.922 360.421 86.342 359.665 86.342H359.427V87.938H360.855V91.396C360.855 93.09 361.877 94.084 363.655 94.084ZM365.975 85.306H367.767V83.444H365.975V85.306ZM365.975 94H367.767V86.314H365.975V94ZM373.253 94.168C375.521 94.168 377.341 92.474 377.341 90.15C377.341 87.84 375.535 86.146 373.253 86.146C370.985 86.146 369.179 87.84 369.179 90.15C369.179 92.474 370.985 94.168 373.253 94.168ZM373.253 92.53C371.965 92.53 371.041 91.536 371.041 90.164C371.041 88.792 371.965 87.798 373.253 87.798C374.541 87.798 375.479 88.792 375.479 90.164C375.479 91.536 374.541 92.53 373.253 92.53ZM382.72 86.146C381.74 86.146 380.928 86.524 380.494 87.21V86.314H378.8V94H380.592V89.45C380.592 88.442 381.264 87.798 382.23 87.798C383.21 87.798 383.868 88.456 383.868 89.45V94H385.66V89.03C385.66 87.336 384.442 86.146 382.72 86.146Z" fill="#5141A4"/>
<circle cx="363" cy="639" r="70" fill="#EEECF6"/>
<path d="M332.77 634H334.646V630.136H336.774L339 634H341.128L338.692 629.814C339.882 629.324 340.624 628.302 340.624 626.86C340.624 624.76 339.098 623.57 336.914 623.57H332.77V634ZM334.646 628.498V625.208H336.928C337.992 625.208 338.734 625.866 338.734 626.86C338.734 627.84 337.992 628.498 336.928 628.498H334.646ZM349.438 629.898C349.438 627.84 347.856 626.146 345.672 626.146C343.488 626.146 341.808 627.854 341.808 630.15C341.808 632.39 343.432 634.168 345.798 634.168C347.394 634.168 348.654 633.384 349.13 632.278L347.674 631.564C347.324 632.18 346.694 632.6 345.812 632.6C344.65 632.6 343.782 631.844 343.67 630.668H349.34C349.41 630.458 349.438 630.164 349.438 629.898ZM343.712 629.31C343.922 628.232 344.692 627.616 345.672 627.616C346.638 627.616 347.45 628.316 347.52 629.31H343.712ZM350.746 634H352.538V623.402H350.746V634ZM354.368 625.306H356.16V623.444H354.368V625.306ZM354.368 634H356.16V626.314H354.368V634ZM363.844 626.314V627.238C363.298 626.566 362.444 626.146 361.38 626.146C359.35 626.146 357.572 627.616 357.572 629.856C357.572 632.068 359.308 633.622 361.408 633.622C362.36 633.622 363.172 633.3 363.732 632.726V633.622C363.732 634.756 362.808 635.47 361.618 635.47C360.568 635.47 359.896 634.924 359.616 634.126L358.076 634.91C358.552 636.226 359.924 637.108 361.632 637.108C363.788 637.108 365.524 635.694 365.524 633.622V626.314H363.844ZM361.604 631.956C360.358 631.956 359.434 631.116 359.434 629.884C359.434 628.638 360.4 627.798 361.59 627.798C362.808 627.798 363.732 628.652 363.732 629.884C363.732 631.102 362.85 631.956 361.604 631.956ZM367.356 625.306H369.148V623.444H367.356V625.306ZM367.356 634H369.148V626.314H367.356V634ZM374.634 634.168C376.902 634.168 378.722 632.474 378.722 630.15C378.722 627.84 376.916 626.146 374.634 626.146C372.366 626.146 370.56 627.84 370.56 630.15C370.56 632.474 372.366 634.168 374.634 634.168ZM374.634 632.53C373.346 632.53 372.422 631.536 372.422 630.164C372.422 628.792 373.346 627.798 374.634 627.798C375.922 627.798 376.86 628.792 376.86 630.164C376.86 631.536 375.922 632.53 374.634 632.53ZM385.109 626.314V630.864C385.109 631.872 384.423 632.53 383.471 632.53C382.505 632.53 381.833 631.872 381.833 630.864V626.314H380.041V631.06C380.041 632.852 381.273 634.168 383.009 634.168C383.961 634.168 384.787 633.79 385.207 633.09V634H386.901V626.314H385.109ZM391.791 634.168C393.583 634.168 394.829 633.216 394.829 631.83C394.829 630.78 394.101 629.982 392.743 629.618L391.329 629.24C390.937 629.114 390.405 628.918 390.405 628.414C390.405 627.938 390.867 627.63 391.567 627.63C392.449 627.63 393.135 628.064 393.429 628.778L394.815 628.134C394.339 626.902 393.107 626.146 391.567 626.146C389.817 626.146 388.641 627.098 388.641 628.484C388.641 629.534 389.313 630.318 390.699 630.682L392.043 631.032C392.491 631.158 393.065 631.354 393.065 631.886C393.065 632.39 392.547 632.726 391.791 632.726C390.853 632.726 390.097 632.25 389.691 631.354L388.305 631.998C388.823 633.412 390.195 634.168 391.791 634.168ZM314.935 651H316.811V647.136H319.079C321.235 647.136 322.789 645.946 322.789 643.86C322.789 641.76 321.263 640.57 319.079 640.57H314.935V651ZM316.811 645.498V642.208H319.093C320.171 642.208 320.899 642.866 320.899 643.86C320.899 644.84 320.171 645.498 319.093 645.498H316.811ZM331.248 646.898C331.248 644.84 329.666 643.146 327.482 643.146C325.298 643.146 323.618 644.854 323.618 647.15C323.618 649.39 325.242 651.168 327.608 651.168C329.204 651.168 330.464 650.384 330.94 649.278L329.484 648.564C329.134 649.18 328.504 649.6 327.622 649.6C326.46 649.6 325.592 648.844 325.48 647.668H331.15C331.22 647.458 331.248 647.164 331.248 646.898ZM325.522 646.31C325.732 645.232 326.502 644.616 327.482 644.616C328.448 644.616 329.26 645.316 329.33 646.31H325.522ZM335.761 643.146C334.193 643.146 332.877 643.958 332.429 645.162L333.983 645.918C334.249 645.204 334.921 644.742 335.747 644.742C336.587 644.742 337.189 645.19 337.189 645.876V646.128L334.837 646.534C333.045 646.828 332.135 647.766 332.135 648.9C332.135 650.188 333.255 651.168 334.977 651.168C335.915 651.168 336.713 650.832 337.287 650.16V651H338.981V645.876C338.981 644.252 337.637 643.146 335.761 643.146ZM335.201 649.782C334.487 649.782 333.997 649.46 333.997 648.83C333.997 648.424 334.277 647.99 335.089 647.836L337.189 647.458V647.934C337.189 648.97 336.335 649.782 335.201 649.782ZM344.193 651.168C345.845 651.168 347.231 650.216 347.679 648.942L346.139 648.158C345.845 648.984 345.131 649.53 344.193 649.53C342.919 649.53 342.023 648.522 342.023 647.164C342.023 645.764 342.947 644.798 344.179 644.798C345.089 644.798 345.845 645.33 346.139 646.156L347.679 645.4C347.203 644.07 345.831 643.146 344.193 643.146C341.883 643.146 340.161 644.868 340.161 647.15C340.161 649.432 341.897 651.168 344.193 651.168ZM356.199 646.898C356.199 644.84 354.617 643.146 352.433 643.146C350.249 643.146 348.569 644.854 348.569 647.15C348.569 649.39 350.193 651.168 352.559 651.168C354.155 651.168 355.415 650.384 355.891 649.278L354.435 648.564C354.085 649.18 353.455 649.6 352.573 649.6C351.411 649.6 350.543 648.844 350.431 647.668H356.101C356.171 647.458 356.199 647.164 356.199 646.898ZM350.473 646.31C350.683 645.232 351.453 644.616 352.433 644.616C353.399 644.616 354.211 645.316 354.281 646.31H350.473ZM361.734 643.16C360.726 643.16 359.844 643.524 359.298 644.14V640.402H357.506V651H359.2V650.16C359.774 650.804 360.712 651.168 361.72 651.168C363.946 651.168 365.64 649.432 365.64 647.178C365.64 644.896 363.918 643.16 361.734 643.16ZM361.524 649.53C360.236 649.53 359.298 648.564 359.298 647.178C359.298 645.792 360.236 644.812 361.524 644.812C362.826 644.812 363.778 645.806 363.778 647.178C363.778 648.55 362.826 649.53 361.524 649.53ZM372.018 643.314V647.864C372.018 648.872 371.332 649.53 370.38 649.53C369.414 649.53 368.742 648.872 368.742 647.864V643.314H366.95V648.06C366.95 649.852 368.182 651.168 369.918 651.168C370.87 651.168 371.696 650.79 372.116 650.09V651H373.81V643.314H372.018ZM375.634 642.306H377.426V640.444H375.634V642.306ZM375.634 651H377.426V643.314H375.634V651ZM379.258 651H381.05V640.402H379.258V651ZM388.844 640.416V644.14C388.298 643.524 387.416 643.16 386.422 643.16C384.196 643.16 382.502 644.924 382.502 647.178C382.502 649.432 384.196 651.168 386.422 651.168C387.43 651.168 388.382 650.804 388.956 650.146V651H390.636V640.416H388.844ZM386.618 649.53C385.316 649.53 384.364 648.55 384.364 647.178C384.364 645.806 385.316 644.812 386.618 644.812C387.906 644.812 388.844 645.792 388.844 647.178C388.844 648.564 387.906 649.53 386.618 649.53ZM392.464 642.306H394.256V640.444H392.464V642.306ZM392.464 651H394.256V643.314H392.464V651ZM400.008 643.146C399.028 643.146 398.216 643.524 397.782 644.21V643.314H396.088V651H397.88V646.45C397.88 645.442 398.552 644.798 399.518 644.798C400.498 644.798 401.156 645.456 401.156 646.45V651H402.948V646.03C402.948 644.336 401.73 643.146 400.008 643.146ZM410.526 643.314V644.238C409.98 643.566 409.126 643.146 408.062 643.146C406.032 643.146 404.254 644.616 404.254 646.856C404.254 649.068 405.99 650.622 408.09 650.622C409.042 650.622 409.854 650.3 410.414 649.726V650.622C410.414 651.756 409.49 652.47 408.3 652.47C407.25 652.47 406.578 651.924 406.298 651.126L404.758 651.91C405.234 653.226 406.606 654.108 408.314 654.108C410.47 654.108 412.206 652.694 412.206 650.622V643.314H410.526ZM408.286 648.956C407.04 648.956 406.116 648.116 406.116 646.884C406.116 645.638 407.082 644.798 408.272 644.798C409.49 644.798 410.414 645.652 410.414 646.884C410.414 648.102 409.532 648.956 408.286 648.956Z" fill="#5141A4"/>
<circle cx="656" cy="345" r="70" fill="#EEECF6"/>
<path d="M634.229 342H636.105V333.208H638.849V331.57H631.457V333.208H634.229V342ZM643.276 334.23C642.282 334.23 641.498 334.552 641.078 335.434V334.314H639.398V342H641.19V337.702C641.19 336.512 641.946 335.826 643.066 335.826H644.032V334.23H643.276ZM648.551 334.146C646.983 334.146 645.667 334.958 645.219 336.162L646.773 336.918C647.039 336.204 647.711 335.742 648.537 335.742C649.377 335.742 649.979 336.19 649.979 336.876V337.128L647.627 337.534C645.835 337.828 644.925 338.766 644.925 339.9C644.925 341.188 646.045 342.168 647.767 342.168C648.705 342.168 649.503 341.832 650.077 341.16V342H651.771V336.876C651.771 335.252 650.427 334.146 648.551 334.146ZM647.991 340.782C647.277 340.782 646.787 340.46 646.787 339.83C646.787 339.424 647.067 338.99 647.879 338.836L649.979 338.458V338.934C649.979 339.97 649.125 340.782 647.991 340.782ZM658.299 334.314V338.864C658.299 339.872 657.613 340.53 656.661 340.53C655.695 340.53 655.023 339.872 655.023 338.864V334.314H653.231V339.06C653.231 340.852 654.463 342.168 656.199 342.168C657.151 342.168 657.977 341.79 658.397 341.09V342H660.091V334.314H658.299ZM670.427 334.146C669.419 334.146 668.523 334.608 668.047 335.406C667.557 334.608 666.731 334.146 665.709 334.146C664.785 334.146 664.043 334.51 663.651 335.252V334.314H661.957V342H663.749V337.45C663.749 336.414 664.337 335.798 665.205 335.798C666.087 335.798 666.675 336.414 666.675 337.45V342H668.467V337.45C668.467 336.414 669.041 335.798 669.923 335.798C670.805 335.798 671.379 336.414 671.379 337.45V342H673.171V337.03C673.171 335.294 672.023 334.146 670.427 334.146ZM678.11 334.146C676.542 334.146 675.226 334.958 674.778 336.162L676.332 336.918C676.598 336.204 677.27 335.742 678.096 335.742C678.936 335.742 679.538 336.19 679.538 336.876V337.128L677.186 337.534C675.394 337.828 674.484 338.766 674.484 339.9C674.484 341.188 675.604 342.168 677.326 342.168C678.264 342.168 679.062 341.832 679.636 341.16V342H681.33V336.876C681.33 335.252 679.986 334.146 678.11 334.146ZM677.55 340.782C676.836 340.782 676.346 340.46 676.346 339.83C676.346 339.424 676.626 338.99 677.438 338.836L679.538 338.458V338.934C679.538 339.97 678.684 340.782 677.55 340.782ZM631.431 359H633.307V354.842H637.913V359H639.789V348.57H637.913V353.204H633.307V348.57H631.431V359ZM649.014 354.898C649.014 352.84 647.432 351.146 645.248 351.146C643.064 351.146 641.384 352.854 641.384 355.15C641.384 357.39 643.008 359.168 645.374 359.168C646.97 359.168 648.23 358.384 648.706 357.278L647.25 356.564C646.9 357.18 646.27 357.6 645.388 357.6C644.226 357.6 643.358 356.844 643.246 355.668H648.916C648.986 355.458 649.014 355.164 649.014 354.898ZM643.288 354.31C643.498 353.232 644.268 352.616 645.248 352.616C646.214 352.616 647.026 353.316 647.096 354.31H643.288ZM653.528 351.146C651.96 351.146 650.644 351.958 650.196 353.162L651.75 353.918C652.016 353.204 652.688 352.742 653.514 352.742C654.354 352.742 654.956 353.19 654.956 353.876V354.128L652.604 354.534C650.812 354.828 649.902 355.766 649.902 356.9C649.902 358.188 651.022 359.168 652.744 359.168C653.682 359.168 654.48 358.832 655.054 358.16V359H656.748V353.876C656.748 352.252 655.404 351.146 653.528 351.146ZM652.968 357.782C652.254 357.782 651.764 357.46 651.764 356.83C651.764 356.424 652.044 355.99 652.856 355.836L654.956 355.458V355.934C654.956 356.97 654.102 357.782 652.968 357.782ZM658.347 359H660.139V348.402H658.347V359ZM661.969 350.306H663.761V348.444H661.969V350.306ZM661.969 359H663.761V351.314H661.969V359ZM669.513 351.146C668.533 351.146 667.721 351.524 667.287 352.21V351.314H665.593V359H667.385V354.45C667.385 353.442 668.057 352.798 669.023 352.798C670.003 352.798 670.661 353.456 670.661 354.45V359H672.453V354.03C672.453 352.336 671.235 351.146 669.513 351.146ZM680.031 351.314V352.238C679.485 351.566 678.631 351.146 677.567 351.146C675.537 351.146 673.759 352.616 673.759 354.856C673.759 357.068 675.495 358.622 677.595 358.622C678.547 358.622 679.359 358.3 679.919 357.726V358.622C679.919 359.756 678.995 360.47 677.805 360.47C676.755 360.47 676.083 359.924 675.803 359.126L674.263 359.91C674.739 361.226 676.111 362.108 677.819 362.108C679.975 362.108 681.711 360.694 681.711 358.622V351.314H680.031ZM677.791 356.956C676.545 356.956 675.621 356.116 675.621 354.884C675.621 353.638 676.587 352.798 677.777 352.798C678.995 352.798 679.919 353.652 679.919 354.884C679.919 356.102 679.037 356.956 677.791 356.956Z" fill="#5141A4"/>
<circle cx="70" cy="345" r="70" fill="#EEECF6"/>
<path d="M50.2225 342H52.0985V338.136H54.3665C56.5225 338.136 58.0765 336.946 58.0765 334.86C58.0765 332.76 56.5505 331.57 54.3665 331.57H50.2225V342ZM52.0985 336.498V333.208H54.3805C55.4585 333.208 56.1865 333.866 56.1865 334.86C56.1865 335.84 55.4585 336.498 54.3805 336.498H52.0985ZM66.5347 337.898C66.5347 335.84 64.9527 334.146 62.7687 334.146C60.5847 334.146 58.9047 335.854 58.9047 338.15C58.9047 340.39 60.5287 342.168 62.8947 342.168C64.4907 342.168 65.7507 341.384 66.2267 340.278L64.7707 339.564C64.4207 340.18 63.7907 340.6 62.9087 340.6C61.7467 340.6 60.8787 339.844 60.7667 338.668H66.4367C66.5067 338.458 66.5347 338.164 66.5347 337.898ZM60.8087 337.31C61.0187 336.232 61.7887 335.616 62.7687 335.616C63.7347 335.616 64.5467 336.316 64.6167 337.31H60.8087ZM71.0483 334.146C69.4803 334.146 68.1643 334.958 67.7163 336.162L69.2703 336.918C69.5363 336.204 70.2083 335.742 71.0343 335.742C71.8743 335.742 72.4763 336.19 72.4763 336.876V337.128L70.1243 337.534C68.3323 337.828 67.4223 338.766 67.4223 339.9C67.4223 341.188 68.5423 342.168 70.2643 342.168C71.2023 342.168 72.0003 341.832 72.5743 341.16V342H74.2683V336.876C74.2683 335.252 72.9243 334.146 71.0483 334.146ZM70.4883 340.782C69.7743 340.782 69.2843 340.46 69.2843 339.83C69.2843 339.424 69.5643 338.99 70.3763 338.836L72.4763 338.458V338.934C72.4763 339.97 71.6223 340.782 70.4883 340.782ZM79.4797 342.168C81.1317 342.168 82.5177 341.216 82.9657 339.942L81.4257 339.158C81.1317 339.984 80.4177 340.53 79.4797 340.53C78.2057 340.53 77.3097 339.522 77.3097 338.164C77.3097 336.764 78.2337 335.798 79.4657 335.798C80.3757 335.798 81.1317 336.33 81.4257 337.156L82.9657 336.4C82.4897 335.07 81.1177 334.146 79.4797 334.146C77.1697 334.146 75.4477 335.868 75.4477 338.15C75.4477 340.432 77.1837 342.168 79.4797 342.168ZM91.4859 337.898C91.4859 335.84 89.9039 334.146 87.7199 334.146C85.5359 334.146 83.8559 335.854 83.8559 338.15C83.8559 340.39 85.4799 342.168 87.8459 342.168C89.4419 342.168 90.7019 341.384 91.1779 340.278L89.7219 339.564C89.3719 340.18 88.7419 340.6 87.8599 340.6C86.6979 340.6 85.8299 339.844 85.7179 338.668H91.3879C91.4579 338.458 91.4859 338.164 91.4859 337.898ZM85.7599 337.31C85.9699 336.232 86.7399 335.616 87.7199 335.616C88.6859 335.616 89.4979 336.316 89.5679 337.31H85.7599ZM36.1405 359H43.1685L43.1825 357.362H38.0165V354.59H42.9025V352.952H38.0165V350.208H43.1825V348.57H36.1405V359ZM50.8366 348.416V352.14C50.2906 351.524 49.4086 351.16 48.4146 351.16C46.1886 351.16 44.4946 352.924 44.4946 355.178C44.4946 357.432 46.1886 359.168 48.4146 359.168C49.4226 359.168 50.3746 358.804 50.9486 358.146V359H52.6286V348.416H50.8366ZM48.6106 357.53C47.3086 357.53 46.3566 356.55 46.3566 355.178C46.3566 353.806 47.3086 352.812 48.6106 352.812C49.8986 352.812 50.8366 353.792 50.8366 355.178C50.8366 356.564 49.8986 357.53 48.6106 357.53ZM59.4265 351.314V355.864C59.4265 356.872 58.7405 357.53 57.7885 357.53C56.8225 357.53 56.1505 356.872 56.1505 355.864V351.314H54.3585V356.06C54.3585 357.852 55.5905 359.168 57.3265 359.168C58.2785 359.168 59.1045 358.79 59.5245 358.09V359H61.2185V351.314H59.4265ZM66.6965 359.168C68.3485 359.168 69.7345 358.216 70.1825 356.942L68.6425 356.158C68.3485 356.984 67.6345 357.53 66.6965 357.53C65.4225 357.53 64.5265 356.522 64.5265 355.164C64.5265 353.764 65.4505 352.798 66.6825 352.798C67.5925 352.798 68.3485 353.33 68.6425 354.156L70.1825 353.4C69.7065 352.07 68.3345 351.146 66.6965 351.146C64.3865 351.146 62.6645 352.868 62.6645 355.15C62.6645 357.432 64.4005 359.168 66.6965 359.168ZM74.6987 351.146C73.1307 351.146 71.8147 351.958 71.3667 353.162L72.9207 353.918C73.1867 353.204 73.8587 352.742 74.6847 352.742C75.5247 352.742 76.1267 353.19 76.1267 353.876V354.128L73.7747 354.534C71.9827 354.828 71.0727 355.766 71.0727 356.9C71.0727 358.188 72.1927 359.168 73.9147 359.168C74.8527 359.168 75.6507 358.832 76.2247 358.16V359H77.9187V353.876C77.9187 352.252 76.5747 351.146 74.6987 351.146ZM74.1387 357.782C73.4247 357.782 72.9347 357.46 72.9347 356.83C72.9347 356.424 73.2147 355.99 74.0267 355.836L76.1267 355.458V355.934C76.1267 356.97 75.2727 357.782 74.1387 357.782ZM83.1441 359.084C83.4381 359.084 83.7741 359.056 84.0541 359.014V357.586C83.8721 357.614 83.6481 357.628 83.5361 357.628C82.3741 357.628 82.1361 357.012 82.1361 356.396V352.938H84.0121V351.342H82.1361V349.06H80.3441V350.18C80.3441 350.922 79.9101 351.342 79.1541 351.342H78.9161V352.938H80.3441V356.396C80.3441 358.09 81.3661 359.084 83.1441 359.084ZM85.4644 350.306H87.2564V348.444H85.4644V350.306ZM85.4644 359H87.2564V351.314H85.4644V359ZM92.7424 359.168C95.0104 359.168 96.8304 357.474 96.8304 355.15C96.8304 352.84 95.0244 351.146 92.7424 351.146C90.4744 351.146 88.6684 352.84 88.6684 355.15C88.6684 357.474 90.4744 359.168 92.7424 359.168ZM92.7424 357.53C91.4544 357.53 90.5304 356.536 90.5304 355.164C90.5304 353.792 91.4544 352.798 92.7424 352.798C94.0304 352.798 94.9684 353.792 94.9684 355.164C94.9684 356.536 94.0304 357.53 92.7424 357.53ZM102.21 351.146C101.23 351.146 100.418 351.524 99.9836 352.21V351.314H98.2896V359H100.082V354.45C100.082 353.442 100.754 352.798 101.72 352.798C102.7 352.798 103.358 353.456 103.358 354.45V359H105.15V354.03C105.15 352.336 103.932 351.146 102.21 351.146Z" fill="#5141A4"/>
<defs>
<filter id="filter0_f_910_572" x="243" y="259" width="248" height="248" filterUnits="userSpaceOnUse" color-interpolation-filters="sRGB">
<feFlood flood-opacity="0" result="BackgroundImageFix"/>
<feBlend mode="normal" in="SourceGraphic" in2="BackgroundImageFix" result="shape"/>
<feGaussianBlur stdDeviation="25" result="effect1_foregroundBlur_910_572"/>
</filter>
<filter id="filter1_f_910_572" x="222" y="192" width="248" height="248" filterUnits="userSpaceOnUse" color-interpolation-filters="sRGB">
<feFlood flood-opacity="0" result="BackgroundImageFix"/>
<feBlend mode="normal" in="SourceGraphic" in2="BackgroundImageFix" result="shape"/>
<feGaussianBlur stdDeviation="25" result="effect1_foregroundBlur_910_572"/>
</filter>
<filter id="filter2_f_910_572" x="273" y="209" width="248" height="248" filterUnits="userSpaceOnUse" color-interpolation-filters="sRGB">
<feFlood flood-opacity="0" result="BackgroundImageFix"/>
<feBlend mode="normal" in="SourceGraphic" in2="BackgroundImageFix" result="shape"/>
<feGaussianBlur stdDeviation="25" result="effect1_foregroundBlur_910_572"/>
</filter>
<filter id="filter3_b_910_572" x="236" y="218" width="254" height="254" filterUnits="userSpaceOnUse" color-interpolation-filters="sRGB">
<feFlood flood-opacity="0" result="BackgroundImageFix"/>
<feGaussianBlur in="BackgroundImage" stdDeviation="2"/>
<feComposite in2="SourceAlpha" operator="in" result="effect1_backgroundBlur_910_572"/>
<feBlend mode="normal" in="SourceGraphic" in2="effect1_backgroundBlur_910_572" result="shape"/>
</filter>
</defs>
</svg>
