<svg width="66" height="66" viewBox="0 0 66 66" fill="none" xmlns="http://www.w3.org/2000/svg">
<circle cx="33" cy="33" r="33" fill="#0B2641"/>
<path d="M52.5062 52.2308C52.4003 51.099 52.2202 50.2856 51.9659 49.7905C51.7328 49.2776 51.3832 49.0212 50.9171 49.0212C50.578 49.0212 50.1331 49.1715 49.5822 49.4721C48.2897 50.2325 47.0925 50.8603 45.9907 51.3554C44.9101 51.8329 43.6705 52.2219 42.2721 52.5225C40.8736 52.8409 39.2951 53 37.5364 53C32.6207 53 28.3194 52.2219 24.6326 50.6658C20.9457 49.1096 18.0853 46.855 16.0512 43.9019C14.0171 40.931 13 37.4032 13 33.3183C13 29.3218 14.0382 25.7851 16.1147 22.7082C18.2124 19.6313 21.1152 17.244 24.8233 15.5464C28.5525 13.8488 32.8114 13 37.6 13C40.185 13 42.3886 13.3095 44.2109 13.9284C46.0543 14.5473 47.8447 15.4138 49.5822 16.5279C50.0695 16.8462 50.4933 17.0053 50.8535 17.0053C51.7434 17.0053 52.2943 15.9266 52.5062 13.7692H54C53.8305 16.3333 53.7457 20.8603 53.7457 27.3501H52.2519C52.0401 25.4226 51.7328 23.8134 51.3302 22.5225C50.9488 21.214 50.3556 20.0469 49.5504 19.0212C48.7452 17.9779 47.6434 17.076 46.245 16.3156C44.2532 15.237 42.2403 14.6976 40.2062 14.6976C37.0915 14.6976 34.623 15.6172 32.8008 17.4562C30.9997 19.2776 29.739 21.5588 29.0186 24.2997C28.3194 27.0407 27.9698 29.9761 27.9698 33.1061C27.9698 36.2361 28.3194 39.1715 29.0186 41.9125C29.739 44.6534 30.9997 46.9434 32.8008 48.7825C34.623 50.6039 37.0915 51.5146 40.2062 51.5146C42.2403 51.5146 44.2532 50.9752 46.245 49.8966C47.6434 49.1715 48.7452 48.2785 49.5504 47.2175C50.3556 46.1565 50.9488 44.9187 51.3302 43.504C51.7328 42.0716 52.0401 40.2767 52.2519 38.1194H53.7457C53.7457 44.8568 53.8305 49.5606 54 52.2308H52.5062Z" fill="#727A8B"/>
</svg>
