<svg width="66" height="66" viewBox="0 0 66 66" fill="none" xmlns="http://www.w3.org/2000/svg">
<circle cx="33" cy="33" r="33" fill="#0B2641"/>
<path d="M54 49.998C52.8665 51.0978 51.6123 51.8731 50.2373 52.3239C48.8622 52.7746 47.2642 53 45.4432 53C42.8232 53 40.7793 52.5492 39.3114 51.6477C37.862 50.7282 36.9701 49.1776 36.6356 46.9959L35.7716 41.4787C35.3814 38.8824 34.8611 36.9261 34.2107 35.6099C33.5604 34.2756 32.5663 33.6085 31.2284 33.6085H28.6363V46.3469C28.6363 47.7352 28.7385 48.7449 28.9429 49.3759C29.1473 50.007 29.5189 50.4397 30.0578 50.6741C30.6152 50.9085 31.4978 51.0527 32.7056 51.1068V52.2157C30.4759 52.1075 27.2984 52.0534 23.1734 52.0534C18.5651 52.0534 15.174 52.1075 13 52.2157V51.1068C14.2264 51.0527 15.109 50.9085 15.6479 50.6741C16.2053 50.4397 16.5769 50.007 16.7627 49.3759C16.9671 48.7449 17.0693 47.7352 17.0693 46.3469V18.8688C17.0693 17.4805 16.9671 16.4708 16.7627 15.8398C16.5584 15.2087 16.1774 14.776 15.62 14.5416C15.0811 14.3072 14.2078 14.1629 13 14.1089V13C15.174 13.1082 18.4537 13.1623 22.8389 13.1623C24.3997 13.1623 26.1371 13.1442 28.051 13.1082C29.9649 13.0721 31.2842 13.0541 32.0088 13.0541C37.8063 13.0541 42.1172 13.8474 44.9415 15.4341C47.7845 17.0027 49.206 19.4188 49.206 22.6822C49.206 25.4589 48.1376 27.8298 46.0007 29.7951C43.8638 31.7424 40.2776 32.9504 35.242 33.4192C39.1255 33.6356 42.0614 34.3297 44.0496 35.5017C46.0564 36.6556 47.2828 38.3685 47.7288 40.6403L48.9273 46.4009C49.206 47.7532 49.5312 48.6908 49.9028 49.2137C50.293 49.7365 50.8226 49.998 51.4915 49.998C52.179 49.998 52.7643 49.7546 53.2475 49.2677L54 49.998ZM30.1971 32.4997C32.0553 32.4997 33.4954 32.103 34.5173 31.3097C35.5579 30.5163 36.264 29.4526 36.6356 28.1183C37.0258 26.7841 37.2209 25.1794 37.2209 23.3043C37.2209 20.2752 36.7936 17.9854 35.9388 16.4348C35.0841 14.8842 33.6812 14.1089 31.7301 14.1089C30.8568 14.1089 30.1971 14.2441 29.7512 14.5145C29.3238 14.767 29.0265 15.2267 28.8593 15.8938C28.7106 16.561 28.6363 17.5526 28.6363 18.8688V32.4997H30.1971Z" fill="#727A8B"/>
</svg>
