<svg width="66" height="66" viewBox="0 0 66 66" fill="none" xmlns="http://www.w3.org/2000/svg">
<circle cx="33" cy="33" r="33" fill="#0B2641"/>
<path d="M53.7234 38.3241C53.5852 39.6667 53.516 41.3954 53.516 43.5103C53.516 47.354 53.6773 50.5172 54 53C50.7965 52.8897 45.3921 52.8345 37.7867 52.8345C26.7473 52.8345 18.4851 52.8897 13 53V51.869C14.5211 51.8138 15.6158 51.6667 16.2841 51.4276C16.9755 51.1885 17.4365 50.7471 17.6669 50.1034C17.9205 49.4598 18.0472 48.4299 18.0472 47.0138V18.9862C18.0472 17.5701 17.9205 16.5402 17.6669 15.8966C17.4134 15.2529 16.941 14.8115 16.2496 14.5724C15.5812 14.3333 14.498 14.1862 13 14.131V13C18.4851 13.1103 26.7473 13.1655 37.7867 13.1655C44.7237 13.1655 49.6557 13.1103 52.5826 13C52.26 16.531 52.0986 19.6943 52.0986 22.4897C52.0986 24.2368 52.1678 25.5977 52.3061 26.5724H50.6813C49.8516 22.1954 48.2729 19.0598 45.9452 17.1655C43.6405 15.2529 40.8749 14.2966 37.6484 14.2966H36.715C35.4244 14.2966 34.491 14.3793 33.9148 14.5448C33.3387 14.7103 32.9354 15.0414 32.7049 15.5379C32.4975 16.0161 32.3938 16.7885 32.3938 17.8552V32.3103H33.1197C34.8021 32.3103 36.3117 31.9333 37.6484 31.1793C39.0082 30.4253 40.1259 29.4782 41.0017 28.3379C41.8775 27.1977 42.4651 26.0391 42.7648 24.8621H44.3895C44.2052 27.069 44.113 28.8989 44.113 30.3517L44.1476 32.8897C44.1476 34.508 44.2974 37.1839 44.597 40.9172H42.9722C42.6726 39.5012 42.0734 38.2322 41.1745 37.1103C40.2988 35.9701 39.1695 35.0782 37.7867 34.4345C36.4039 33.7724 34.8482 33.4414 33.1197 33.4414H32.3938V48.1448C32.3938 49.2299 32.4975 50.0115 32.7049 50.4897C32.9354 50.9678 33.3387 51.2897 33.9148 51.4552C34.491 51.6207 35.4244 51.7034 36.715 51.7034H39.0658C40.7712 51.7034 42.4767 51.2713 44.1821 50.4069C45.9106 49.5425 47.4778 48.1172 48.8836 46.131C50.3125 44.1264 51.3842 41.5241 52.0986 38.3241H53.7234Z" fill="#727A8B"/>
</svg>
