<svg width="124" height="160" viewBox="0 0 124 160" fill="none" xmlns="http://www.w3.org/2000/svg">
<circle cx="2" cy="2" r="2" fill="#CBC6E4"/>
<circle cx="14" cy="2" r="2" fill="#CBC6E4"/>
<circle cx="26" cy="2" r="2" fill="#CBC6E4"/>
<circle cx="38" cy="2" r="2" fill="#CBC6E4"/>
<circle cx="50" cy="2" r="2" fill="#CBC6E4"/>
<circle cx="62" cy="2" r="2" fill="#CBC6E4"/>
<circle cx="74" cy="2" r="2" fill="#CBC6E4"/>
<circle cx="86" cy="2" r="2" fill="#CBC6E4"/>
<circle cx="98" cy="2" r="2" fill="#CBC6E4"/>
<circle cx="110" cy="2" r="2" fill="#CBC6E4"/>
<circle cx="122" cy="2" r="2" fill="#CBC6E4"/>
<circle cx="2" cy="14" r="2" fill="#CBC6E4"/>
<circle cx="14" cy="14" r="2" fill="#CBC6E4"/>
<circle cx="26" cy="14" r="2" fill="#CBC6E4"/>
<circle cx="38" cy="14" r="2" fill="#CBC6E4"/>
<circle cx="50" cy="14" r="2" fill="#CBC6E4"/>
<circle cx="62" cy="14" r="2" fill="#CBC6E4"/>
<circle cx="74" cy="14" r="2" fill="#CBC6E4"/>
<circle cx="86" cy="14" r="2" fill="#CBC6E4"/>
<circle cx="98" cy="14" r="2" fill="#CBC6E4"/>
<circle cx="110" cy="14" r="2" fill="#CBC6E4"/>
<circle cx="122" cy="14" r="2" fill="#CBC6E4"/>
<circle cx="2" cy="26" r="2" fill="#CBC6E4"/>
<circle cx="14" cy="26" r="2" fill="#CBC6E4"/>
<circle cx="26" cy="26" r="2" fill="#CBC6E4"/>
<circle cx="38" cy="26" r="2" fill="#CBC6E4"/>
<circle cx="50" cy="26" r="2" fill="#CBC6E4"/>
<circle cx="62" cy="26" r="2" fill="#CBC6E4"/>
<circle cx="74" cy="26" r="2" fill="#CBC6E4"/>
<circle cx="86" cy="26" r="2" fill="#CBC6E4"/>
<circle cx="98" cy="26" r="2" fill="#CBC6E4"/>
<circle cx="110" cy="26" r="2" fill="#CBC6E4"/>
<circle cx="122" cy="26" r="2" fill="#CBC6E4"/>
<circle cx="2" cy="38" r="2" fill="#CBC6E4"/>
<circle cx="14" cy="38" r="2" fill="#CBC6E4"/>
<circle cx="26" cy="38" r="2" fill="#CBC6E4"/>
<circle cx="38" cy="38" r="2" fill="#CBC6E4"/>
<circle cx="50" cy="38" r="2" fill="#CBC6E4"/>
<circle cx="62" cy="38" r="2" fill="#CBC6E4"/>
<circle cx="74" cy="38" r="2" fill="#CBC6E4"/>
<circle cx="86" cy="38" r="2" fill="#CBC6E4"/>
<circle cx="98" cy="38" r="2" fill="#CBC6E4"/>
<circle cx="110" cy="38" r="2" fill="#CBC6E4"/>
<circle cx="122" cy="38" r="2" fill="#CBC6E4"/>
<circle cx="2" cy="50" r="2" fill="#CBC6E4"/>
<circle cx="14" cy="50" r="2" fill="#CBC6E4"/>
<circle cx="26" cy="50" r="2" fill="#CBC6E4"/>
<circle cx="38" cy="50" r="2" fill="#CBC6E4"/>
<circle cx="50" cy="50" r="2" fill="#CBC6E4"/>
<circle cx="62" cy="50" r="2" fill="#CBC6E4"/>
<circle cx="74" cy="50" r="2" fill="#CBC6E4"/>
<circle cx="86" cy="50" r="2" fill="#CBC6E4"/>
<circle cx="98" cy="50" r="2" fill="#CBC6E4"/>
<circle cx="110" cy="50" r="2" fill="#CBC6E4"/>
<circle cx="122" cy="50" r="2" fill="#CBC6E4"/>
<circle cx="2" cy="62" r="2" fill="#CBC6E4"/>
<circle cx="14" cy="62" r="2" fill="#CBC6E4"/>
<circle cx="26" cy="62" r="2" fill="#CBC6E4"/>
<circle cx="38" cy="62" r="2" fill="#CBC6E4"/>
<circle cx="50" cy="62" r="2" fill="#CBC6E4"/>
<circle cx="62" cy="62" r="2" fill="#CBC6E4"/>
<circle cx="74" cy="62" r="2" fill="#CBC6E4"/>
<circle cx="86" cy="62" r="2" fill="#CBC6E4"/>
<circle cx="98" cy="62" r="2" fill="#CBC6E4"/>
<circle cx="110" cy="62" r="2" fill="#CBC6E4"/>
<circle cx="122" cy="62" r="2" fill="#CBC6E4"/>
<circle cx="2" cy="74" r="2" fill="#CBC6E4"/>
<circle cx="14" cy="74" r="2" fill="#CBC6E4"/>
<circle cx="26" cy="74" r="2" fill="#CBC6E4"/>
<circle cx="38" cy="74" r="2" fill="#CBC6E4"/>
<circle cx="50" cy="74" r="2" fill="#CBC6E4"/>
<circle cx="62" cy="74" r="2" fill="#CBC6E4"/>
<circle cx="74" cy="74" r="2" fill="#CBC6E4"/>
<circle cx="86" cy="74" r="2" fill="#CBC6E4"/>
<circle cx="98" cy="74" r="2" fill="#CBC6E4"/>
<circle cx="110" cy="74" r="2" fill="#CBC6E4"/>
<circle cx="122" cy="74" r="2" fill="#CBC6E4"/>
<circle cx="2" cy="86" r="2" fill="#CBC6E4"/>
<circle cx="14" cy="86" r="2" fill="#CBC6E4"/>
<circle cx="26" cy="86" r="2" fill="#CBC6E4"/>
<circle cx="38" cy="86" r="2" fill="#CBC6E4"/>
<circle cx="50" cy="86" r="2" fill="#CBC6E4"/>
<circle cx="62" cy="86" r="2" fill="#CBC6E4"/>
<circle cx="74" cy="86" r="2" fill="#CBC6E4"/>
<circle cx="86" cy="86" r="2" fill="#CBC6E4"/>
<circle cx="98" cy="86" r="2" fill="#CBC6E4"/>
<circle cx="110" cy="86" r="2" fill="#CBC6E4"/>
<circle cx="122" cy="86" r="2" fill="#CBC6E4"/>
<circle cx="2" cy="98" r="2" fill="#CBC6E4"/>
<circle cx="14" cy="98" r="2" fill="#CBC6E4"/>
<circle cx="26" cy="98" r="2" fill="#CBC6E4"/>
<circle cx="38" cy="98" r="2" fill="#CBC6E4"/>
<circle cx="50" cy="98" r="2" fill="#CBC6E4"/>
<circle cx="62" cy="98" r="2" fill="#CBC6E4"/>
<circle cx="74" cy="98" r="2" fill="#CBC6E4"/>
<circle cx="86" cy="98" r="2" fill="#CBC6E4"/>
<circle cx="98" cy="98" r="2" fill="#CBC6E4"/>
<circle cx="110" cy="98" r="2" fill="#CBC6E4"/>
<circle cx="122" cy="98" r="2" fill="#CBC6E4"/>
<circle cx="2" cy="110" r="2" fill="#CBC6E4"/>
<circle cx="14" cy="110" r="2" fill="#CBC6E4"/>
<circle cx="26" cy="110" r="2" fill="#CBC6E4"/>
<circle cx="38" cy="110" r="2" fill="#CBC6E4"/>
<circle cx="50" cy="110" r="2" fill="#CBC6E4"/>
<circle cx="62" cy="110" r="2" fill="#CBC6E4"/>
<circle cx="74" cy="110" r="2" fill="#CBC6E4"/>
<circle cx="86" cy="110" r="2" fill="#CBC6E4"/>
<circle cx="98" cy="110" r="2" fill="#CBC6E4"/>
<circle cx="110" cy="110" r="2" fill="#CBC6E4"/>
<circle cx="122" cy="110" r="2" fill="#CBC6E4"/>
<circle cx="2" cy="122" r="2" fill="#CBC6E4"/>
<circle cx="14" cy="122" r="2" fill="#CBC6E4"/>
<circle cx="26" cy="122" r="2" fill="#CBC6E4"/>
<circle cx="38" cy="122" r="2" fill="#CBC6E4"/>
<circle cx="50" cy="122" r="2" fill="#CBC6E4"/>
<circle cx="62" cy="122" r="2" fill="#CBC6E4"/>
<circle cx="74" cy="122" r="2" fill="#CBC6E4"/>
<circle cx="86" cy="122" r="2" fill="#CBC6E4"/>
<circle cx="98" cy="122" r="2" fill="#CBC6E4"/>
<circle cx="110" cy="122" r="2" fill="#CBC6E4"/>
<circle cx="122" cy="122" r="2" fill="#CBC6E4"/>
<circle cx="2" cy="134" r="2" fill="#CBC6E4"/>
<circle cx="14" cy="134" r="2" fill="#CBC6E4"/>
<circle cx="26" cy="134" r="2" fill="#CBC6E4"/>
<circle cx="38" cy="134" r="2" fill="#CBC6E4"/>
<circle cx="50" cy="134" r="2" fill="#CBC6E4"/>
<circle cx="62" cy="134" r="2" fill="#CBC6E4"/>
<circle cx="74" cy="134" r="2" fill="#CBC6E4"/>
<circle cx="86" cy="134" r="2" fill="#CBC6E4"/>
<circle cx="98" cy="134" r="2" fill="#CBC6E4"/>
<circle cx="110" cy="134" r="2" fill="#CBC6E4"/>
<circle cx="122" cy="134" r="2" fill="#CBC6E4"/>
<circle cx="2" cy="146" r="2" fill="#CBC6E4"/>
<circle cx="14" cy="146" r="2" fill="#CBC6E4"/>
<circle cx="26" cy="146" r="2" fill="#CBC6E4"/>
<circle cx="38" cy="146" r="2" fill="#CBC6E4"/>
<circle cx="50" cy="146" r="2" fill="#CBC6E4"/>
<circle cx="62" cy="146" r="2" fill="#CBC6E4"/>
<circle cx="74" cy="146" r="2" fill="#CBC6E4"/>
<circle cx="86" cy="146" r="2" fill="#CBC6E4"/>
<circle cx="98" cy="146" r="2" fill="#CBC6E4"/>
<circle cx="110" cy="146" r="2" fill="#CBC6E4"/>
<circle cx="122" cy="146" r="2" fill="#CBC6E4"/>
<circle cx="2" cy="158" r="2" fill="#CBC6E4"/>
<circle cx="14" cy="158" r="2" fill="#CBC6E4"/>
<circle cx="26" cy="158" r="2" fill="#CBC6E4"/>
<circle cx="38" cy="158" r="2" fill="#CBC6E4"/>
<circle cx="50" cy="158" r="2" fill="#CBC6E4"/>
<circle cx="62" cy="158" r="2" fill="#CBC6E4"/>
<circle cx="74" cy="158" r="2" fill="#CBC6E4"/>
<circle cx="86" cy="158" r="2" fill="#CBC6E4"/>
<circle cx="98" cy="158" r="2" fill="#CBC6E4"/>
<circle cx="110" cy="158" r="2" fill="#CBC6E4"/>
<circle cx="122" cy="158" r="2" fill="#CBC6E4"/>
</svg>
