<svg width="66" height="66" viewBox="0 0 66 66" fill="none" xmlns="http://www.w3.org/2000/svg">
<circle cx="33" cy="33" r="33" fill="#0B2641"/>
<path d="M15.122 36.8462C15.4504 41.1432 16.7261 44.6357 18.9492 47.3236C21.1722 50.0115 24.5952 51.3554 29.2181 51.3554C32.098 51.3554 34.3715 50.8868 36.0388 49.9496C37.7061 49.0124 38.5397 47.7126 38.5397 46.0504C38.5397 44.618 38.0724 43.336 37.1377 42.2042C36.2283 41.0548 34.9904 40.0115 33.4242 39.0743C31.858 38.1194 29.7865 37.0407 27.2098 35.8382C24.0773 34.3705 21.589 33.0973 19.7449 32.0186C17.9261 30.9399 16.4104 29.6844 15.1978 28.252C14.0105 26.8019 13.4168 25.1397 13.4168 23.2653C13.4168 21.0018 14.2884 19.1008 16.0314 17.5623C17.7998 16.0062 20.1365 14.8568 23.0416 14.1141C25.9467 13.3714 29.1423 13 32.6285 13C35.6094 13 38.0219 13.1945 39.866 13.5836C41.7101 13.9726 43.4911 14.5031 45.2089 15.1751C45.9415 15.458 46.4846 15.6614 46.8383 15.7851C47.1919 15.8912 47.533 15.9443 47.8614 15.9443C48.3413 15.9443 48.7076 15.7586 48.9603 15.3873C49.2129 14.9982 49.415 14.3882 49.5665 13.557H51.3475C51.0949 16.1565 50.9686 20.5774 50.9686 26.8196H49.1876C48.9855 24.7507 48.3034 22.7701 47.1414 20.878C46.0046 18.9859 44.451 17.4474 42.4806 16.2626C40.5102 15.0778 38.2366 14.4854 35.6599 14.4854C33.3105 14.4854 31.4033 14.9275 29.9381 15.8117C28.4729 16.6958 27.7403 17.9337 27.7403 19.5252C27.7403 20.8338 28.1697 21.9567 29.0287 22.8939C29.9128 23.8311 31.1128 24.7153 32.6285 25.5464C34.1694 26.3775 37.0998 27.8453 41.4196 29.9496C44.2742 31.3466 46.5477 32.5756 48.2403 33.6366C49.9328 34.6799 51.3096 35.9089 52.3706 37.3236C53.4569 38.7383 54 40.374 54 42.2308C54 44.5827 53.0527 46.5721 51.158 48.1989C49.2634 49.8081 46.7246 51.0106 43.5416 51.8064C40.3586 52.6021 36.8093 53 32.8937 53C29.7107 53 27.0709 52.8143 24.9741 52.443C22.9026 52.0893 20.9575 51.603 19.1386 50.9841C17.9766 50.4713 17.1051 50.2149 16.524 50.2149C16.0441 50.2149 15.6778 50.4005 15.4251 50.7719C15.1725 51.1432 14.9578 51.7533 14.781 52.6021H13C13.2274 49.8435 13.341 44.5915 13.341 36.8462H15.122Z" fill="#727A8B"/>
</svg>
