<svg width="188" height="188" viewBox="0 0 188 188" fill="none" xmlns="http://www.w3.org/2000/svg">
<path d="M82.745 19.1724C88.2615 10.6442 100.738 10.6442 106.255 19.1724L110.526 25.7754C113.929 31.0352 120.411 33.3946 126.398 31.5524L133.915 29.2397C143.622 26.2527 153.18 34.2728 151.925 44.3517L150.952 52.1554C150.178 58.3717 153.627 64.3459 159.398 66.7833L166.642 69.843C175.999 73.7949 178.165 86.0823 170.725 92.9959L164.963 98.3489C160.374 102.613 159.176 109.407 162.03 114.983L165.613 121.984C170.24 131.025 164.002 141.831 153.858 142.344L146.004 142.741C139.748 143.058 134.463 147.492 133.065 153.599L131.31 161.264C129.043 171.165 117.318 175.432 109.217 169.305L102.945 164.561C97.9492 160.782 91.0508 160.782 86.0546 164.561L79.7825 169.305C71.6819 175.432 59.9574 171.165 57.6903 161.264L55.935 153.599C54.5368 147.492 49.2522 143.058 42.9959 142.741L35.1419 142.344C24.998 141.831 18.7595 131.025 23.3868 121.984L26.9696 114.983C29.8235 109.407 28.6256 102.613 24.0365 98.3489L18.2755 92.9959C10.8349 86.0823 13.0015 73.7949 22.358 69.843L29.6024 66.7833C35.3731 64.3459 38.8224 58.3717 38.0478 52.1554L37.0754 44.3517C35.8196 34.2728 45.3775 26.2527 55.0852 29.2397L62.6015 31.5524C68.5889 33.3946 75.0713 31.0352 78.4737 25.7754L82.745 19.1724Z" fill="white"/>
<circle cx="94" cy="94" r="93" stroke="white" stroke-width="2" stroke-dasharray="8 7"/>
<path d="M43.2286 94H45.2446V89.552H47.8206C50.2526 89.552 51.9806 88.176 51.9806 85.824C51.9806 83.456 50.2686 82.08 47.8206 82.08H43.2286V94ZM45.2446 87.792V83.856H47.8206C49.0846 83.856 49.9326 84.64 49.9326 85.824C49.9326 87.008 49.0846 87.792 47.8206 87.792H45.2446ZM61.0831 89.376C61.0831 87.088 59.3551 85.184 56.9231 85.184C54.4911 85.184 52.6511 87.088 52.6511 89.68C52.6511 92.208 54.4591 94.192 57.0671 94.192C58.8271 94.192 60.2351 93.296 60.7631 92.064L59.1791 91.296C58.7951 92 58.1071 92.496 57.0831 92.496C55.7551 92.496 54.7471 91.616 54.6511 90.24H60.9871C61.0511 89.984 61.0831 89.68 61.0831 89.376ZM54.6831 88.752C54.9071 87.488 55.8031 86.784 56.9231 86.784C58.0271 86.784 58.9551 87.6 59.0191 88.752H54.6831ZM65.791 85.184C64.079 85.184 62.639 86.096 62.143 87.408L63.807 88.24C64.127 87.424 64.863 86.912 65.791 86.912C66.751 86.912 67.407 87.44 67.407 88.24V88.512L64.575 89.12C62.831 89.504 61.823 90.352 61.823 91.632C61.823 93.104 63.039 94.192 64.959 94.192C65.999 94.192 66.879 93.808 67.519 93.04V94H69.327V88.24C69.327 86.448 67.887 85.184 65.791 85.184ZM65.183 92.672C64.351 92.672 63.823 92.272 63.823 91.616C63.823 91.088 64.239 90.672 64.959 90.512L67.407 89.968V90.528C67.407 91.744 66.463 92.672 65.183 92.672ZM74.8175 94.192C76.6575 94.192 78.1615 93.136 78.6735 91.728L77.0095 90.88C76.6735 91.824 75.8735 92.416 74.8175 92.416C73.4095 92.416 72.3855 91.264 72.3855 89.696C72.3855 88.096 73.4095 86.96 74.8175 86.96C75.8575 86.96 76.6735 87.568 77.0095 88.496L78.6735 87.664C78.1455 86.208 76.6415 85.184 74.8175 85.184C72.2735 85.184 70.3855 87.104 70.3855 89.68C70.3855 92.256 72.2895 94.192 74.8175 94.192ZM87.8488 89.376C87.8488 87.088 86.1208 85.184 83.6888 85.184C81.2568 85.184 79.4168 87.088 79.4168 89.68C79.4168 92.208 81.2248 94.192 83.8328 94.192C85.5928 94.192 87.0008 93.296 87.5288 92.064L85.9448 91.296C85.5608 92 84.8728 92.496 83.8488 92.496C82.5208 92.496 81.5128 91.616 81.4168 90.24H87.7528C87.8168 89.984 87.8488 89.68 87.8488 89.376ZM81.4488 88.752C81.6728 87.488 82.5688 86.784 83.6888 86.784C84.7928 86.784 85.7208 87.6 85.7848 88.752H81.4488ZM89.2606 95.872H90.5886L91.7726 91.84H89.9006L89.2606 95.872ZM96.1474 94H96.8514C99.1394 94 100.595 92.56 100.595 90.368V82.08H98.5634V90.432C98.5634 91.456 97.8914 92.112 96.8514 92.112H96.1474V94ZM108.024 85.376V90.496C108.024 91.664 107.288 92.416 106.2 92.416C105.096 92.416 104.36 91.664 104.36 90.496V85.376H102.44V90.736C102.44 92.72 103.784 94.192 105.704 94.192C106.76 94.192 107.64 93.76 108.12 93.008V94H109.944V85.376H108.024ZM115.067 94.192C117.035 94.192 118.395 93.136 118.395 91.584C118.395 90.384 117.595 89.52 116.107 89.104L114.571 88.672C114.075 88.528 113.531 88.256 113.531 87.712C113.531 87.168 114.027 86.8 114.827 86.8C115.803 86.8 116.571 87.296 116.891 88.112L118.395 87.408C117.867 86.032 116.523 85.184 114.827 85.184C112.923 85.184 111.627 86.24 111.627 87.792C111.627 88.96 112.379 89.84 113.883 90.256L115.355 90.64C115.883 90.784 116.491 91.04 116.491 91.632C116.491 92.224 115.931 92.624 115.067 92.624C114.043 92.624 113.195 92.08 112.747 91.056L111.259 91.776C111.803 93.28 113.275 94.192 115.067 94.192ZM123.597 94.096C123.901 94.096 124.285 94.064 124.589 94.016V92.48C124.381 92.512 124.173 92.528 124.013 92.528C122.797 92.528 122.493 91.84 122.493 91.104V87.104H124.541V85.376H122.493V82.704H120.573V84.08C120.573 84.912 120.093 85.376 119.261 85.376H119.005V87.104H120.573V91.104C120.573 93.008 121.661 94.096 123.597 94.096ZM125.88 84.24H127.8V82.08H125.88V84.24ZM125.88 94H127.8V85.376H125.88V94ZM133.536 94.192C135.376 94.192 136.88 93.136 137.392 91.728L135.728 90.88C135.392 91.824 134.592 92.416 133.536 92.416C132.128 92.416 131.104 91.264 131.104 89.696C131.104 88.096 132.128 86.96 133.536 86.96C134.576 86.96 135.392 87.568 135.728 88.496L137.392 87.664C136.864 86.208 135.36 85.184 133.536 85.184C130.992 85.184 129.104 87.104 129.104 89.68C129.104 92.256 131.008 94.192 133.536 94.192ZM146.568 89.376C146.568 87.088 144.84 85.184 142.408 85.184C139.976 85.184 138.136 87.088 138.136 89.68C138.136 92.208 139.944 94.192 142.552 94.192C144.312 94.192 145.72 93.296 146.248 92.064L144.664 91.296C144.28 92 143.592 92.496 142.568 92.496C141.24 92.496 140.232 91.616 140.136 90.24H146.472C146.536 89.984 146.568 89.68 146.568 89.376ZM140.168 88.752C140.392 87.488 141.288 86.784 142.408 86.784C143.512 86.784 144.44 87.6 144.504 88.752H140.168ZM47.951 113L45.247 110.152L47.759 107.32H45.775L44.175 109.016L42.111 106.824C43.951 105.864 44.767 105.048 44.767 103.768C44.767 102.12 43.391 100.888 41.583 100.888C39.727 100.888 38.303 102.2 38.303 103.88C38.303 104.728 38.671 105.512 39.487 106.456L39.215 106.6C37.471 107.448 36.703 108.536 36.703 109.992C36.703 111.912 38.159 113.192 40.367 113.192C41.823 113.192 42.943 112.632 44.127 111.4L45.631 113H47.951ZM40.031 103.864C40.031 103.064 40.703 102.44 41.583 102.44C42.415 102.44 43.039 103 43.039 103.752C43.039 104.44 42.543 104.952 41.055 105.688H41.039C40.351 104.936 40.031 104.408 40.031 103.864ZM40.511 111.576C39.391 111.576 38.671 110.92 38.671 109.88C38.671 108.984 39.199 108.28 40.143 107.816L40.559 107.608L43.023 110.232C42.159 111.128 41.471 111.576 40.511 111.576ZM53.1661 113H57.0541C60.7981 113 63.2141 110.552 63.2141 107.032C63.2141 103.512 60.7981 101.08 57.0541 101.08H53.1661V113ZM55.1821 111.224V102.856H57.1021C59.5661 102.856 61.1661 104.488 61.1661 107.032C61.1661 109.576 59.5821 111.224 57.1021 111.224H55.1821ZM72.7863 108.376C72.7863 106.088 71.0583 104.184 68.6263 104.184C66.1943 104.184 64.3543 106.088 64.3543 108.68C64.3543 111.208 66.1623 113.192 68.7703 113.192C70.5303 113.192 71.9383 112.296 72.4663 111.064L70.8823 110.296C70.4983 111 69.8103 111.496 68.7863 111.496C67.4583 111.496 66.4503 110.616 66.3543 109.24H72.6903C72.7543 108.984 72.7863 108.68 72.7863 108.376ZM66.3863 107.752C66.6103 106.488 67.5063 105.784 68.6263 105.784C69.7303 105.784 70.6583 106.6 70.7223 107.752H66.3863ZM79.5299 104.376L77.3059 110.44L75.0819 104.376H73.0499L76.4419 113H78.1539L81.5619 104.376H79.5299ZM90.4113 108.376C90.4113 106.088 88.6833 104.184 86.2513 104.184C83.8193 104.184 81.9793 106.088 81.9793 108.68C81.9793 111.208 83.7873 113.192 86.3953 113.192C88.1553 113.192 89.5633 112.296 90.0913 111.064L88.5073 110.296C88.1233 111 87.4353 111.496 86.4113 111.496C85.0833 111.496 84.0753 110.616 83.9793 109.24H90.3153C90.3793 108.984 90.4113 108.68 90.4113 108.376ZM84.0113 107.752C84.2353 106.488 85.1313 105.784 86.2513 105.784C87.3553 105.784 88.2833 106.6 88.3473 107.752H84.0113ZM91.6311 113H93.5511V101.08H91.6311V113ZM99.4448 113.192C101.957 113.192 103.973 111.288 103.973 108.68C103.973 106.072 101.973 104.184 99.4448 104.184C96.9008 104.184 94.9168 106.072 94.9168 108.68C94.9168 111.288 96.9168 113.192 99.4448 113.192ZM99.4448 111.416C97.9728 111.416 96.9168 110.28 96.9168 108.696C96.9168 107.112 97.9728 105.96 99.4448 105.96C100.901 105.96 101.973 107.112 101.973 108.696C101.973 110.28 100.901 111.416 99.4448 111.416ZM109.99 104.184C108.774 104.184 107.734 104.664 107.142 105.464V104.376H105.334V116.2H107.254V112.12C107.862 112.792 108.838 113.192 109.974 113.192C112.438 113.192 114.358 111.24 114.358 108.68C114.358 106.12 112.422 104.184 109.99 104.184ZM109.798 111.416C108.31 111.416 107.254 110.28 107.254 108.696C107.254 107.096 108.31 105.96 109.798 105.96C111.27 105.96 112.358 107.112 112.358 108.696C112.358 110.264 111.27 111.416 109.798 111.416ZM125.181 104.184C123.997 104.184 123.005 104.728 122.493 105.608C121.949 104.712 121.005 104.184 119.853 104.184C118.813 104.184 117.981 104.616 117.533 105.432V104.376H115.725V113H117.645V107.88C117.645 106.68 118.317 105.96 119.325 105.96C120.349 105.96 121.021 106.68 121.021 107.88V113H122.941V107.88C122.941 106.68 123.629 105.96 124.637 105.96C125.661 105.96 126.333 106.68 126.333 107.88V113H128.253V107.4C128.253 105.48 126.973 104.184 125.181 104.184ZM137.896 108.376C137.896 106.088 136.168 104.184 133.736 104.184C131.304 104.184 129.464 106.088 129.464 108.68C129.464 111.208 131.272 113.192 133.88 113.192C135.64 113.192 137.048 112.296 137.576 111.064L135.992 110.296C135.608 111 134.92 111.496 133.896 111.496C132.568 111.496 131.56 110.616 131.464 109.24H137.8C137.864 108.984 137.896 108.68 137.896 108.376ZM131.496 107.752C131.72 106.488 132.616 105.784 133.736 105.784C134.84 105.784 135.768 106.6 135.832 107.752H131.496ZM143.372 104.184C142.299 104.184 141.404 104.616 140.924 105.416V104.376H139.116V113H141.036V107.88C141.036 106.712 141.772 105.96 142.876 105.96C143.964 105.96 144.7 106.712 144.7 107.88V113H146.62V107.4C146.62 105.512 145.292 104.184 143.372 104.184ZM152.207 113.096C152.511 113.096 152.895 113.064 153.199 113.016V111.48C152.991 111.512 152.783 111.528 152.623 111.528C151.407 111.528 151.103 110.84 151.103 110.104V106.104H153.151V104.376H151.103V101.704H149.183V103.08C149.183 103.912 148.703 104.376 147.871 104.376H147.615V106.104H149.183V110.104C149.183 112.008 150.271 113.096 152.207 113.096Z" fill="#434D64"/>
</svg>
